<svg width="164" height="52" fill="none" xmlns="http://www.w3.org/2000/svg"><mask id="a" fill="#fff"><path d="M150.511 0H11.534c-.423 0-.833.013-1.257.013-.915.025-1.831.077-2.733.23a9.635 9.635 0 0 0-2.597.81 8.297 8.297 0 0 0-2.214 1.513 7.834 7.834 0 0 0-1.612 2.079A8.29 8.29 0 0 0 .26 7.083C.096 7.93.04 8.79.014 9.649c0 .398-.014.796-.014 1.18v29.654c0 .398.014.783.027 1.18.028.86.082 1.72.246 2.567.164.86.424 1.668.861 2.438.41.77.957 1.463 1.613 2.066a8.298 8.298 0 0 0 2.214 1.514 9.635 9.635 0 0 0 2.597.808c.902.154 1.831.206 2.733.231.41.026.82.039 1.244.039h140.452c.41 0 .847 0 1.257-.013.916-.026 1.831-.077 2.733-.231a9.89 9.89 0 0 0 2.611-.808 8.52 8.52 0 0 0 2.214-1.514 8.272 8.272 0 0 0 1.612-2.066 7.897 7.897 0 0 0 .848-2.438c.164-.847.218-1.707.259-2.567v-1.18c.014-.462.014-.924.014-1.399V12.241c0-.475 0-.936-.014-1.398v-1.18c-.027-.86-.082-1.72-.259-2.567a7.897 7.897 0 0 0-.848-2.438 8.43 8.43 0 0 0-1.612-2.079 8.952 8.952 0 0 0-2.214-1.514 9.89 9.89 0 0 0-2.611-.808c-.902-.154-1.817-.206-2.733-.231-.41 0-.847-.013-1.257-.013C151.508 0 151.003 0 150.511 0Z"/></mask><path d="M10.277.013V-1.27h-.036l.036 1.283Zm-2.733.23.213 1.266h.003L7.544.244Zm-2.597.81.546 1.16.007-.003-.553-1.158ZM2.733 2.565l.869.945.01-.01.01-.009-.889-.926ZM1.121 4.645l1.128.61.004-.007-1.132-.603ZM.26 7.083l1.26.244v-.004l-1.26-.24ZM.014 9.649l-1.283-.04v.04H.014Zm.013 32.015 1.283-.041v-.003l-1.283.044Zm.246 2.566 1.26-.24v-.004l-1.26.244Zm.861 2.438 1.133-.603-.008-.016-.009-.015-1.116.634Zm1.613 2.066.888-.926-.01-.01-.01-.009-.868.945Zm2.214 1.514.553-1.158-.008-.004-.545 1.162Zm2.597.808.216-1.264-.004-.001-.212 1.265Zm2.733.231.08-1.28-.022-.002h-.021l-.037 1.282Zm142.953.026-.036-1.283h-.004l.04 1.283Zm2.733-.231-.213-1.265h-.003l.216 1.265Zm4.825-2.322-.869-.945-.01.01.879.934Zm1.612-2.066 1.12.626.004-.008.005-.008-1.129-.61Zm.848-2.438-1.26-.244-.002.011-.002.012 1.264.22Zm.259-2.567 1.282.062.001-.031v-.03h-1.283Zm0-1.18-1.282-.038-.001.019v.019h1.283Zm0-29.666h-1.283v.019l.001.018 1.282-.037Zm0-1.18h1.283v-.041l-1.283.04Zm-.259-2.567-1.264.22.003.022.005.021 1.256-.263Zm-.848-2.438 1.129-.611-.005-.008-1.124.619Zm-3.826-3.593.56-1.154-.008-.004-.007-.004-.545 1.162Zm-2.611-.808-.216 1.264.003.001.213-1.265Zm-2.733-.231.036-1.283h-.036V.026Zm-1.257-.013-.035 1.283h.035V.013Zm-1.476-1.296H13.024v2.566h137.487v-2.566Zm-137.487 0H11.535v2.566H13.024v-2.566Zm-1.49 0c-.223 0-.44.003-.648.006-.21.004-.408.007-.609.007v2.566c.224 0 .442-.003.649-.007.21-.003.408-.006.609-.006v-2.566Zm-1.293.013c-.934.026-1.92.08-2.913.249l.432 2.53c.812-.139 1.656-.188 2.553-.214l-.072-2.565Zm-2.91.248a10.917 10.917 0 0 0-2.936.916L5.5 2.21a8.353 8.353 0 0 1 2.257-.7L7.33-1.023Zm-2.929.913a9.58 9.58 0 0 0-2.557 1.75l1.776 1.851a7.014 7.014 0 0 1 1.872-1.278L4.402-.11ZM1.865 1.62a9.117 9.117 0 0 0-1.877 2.42l2.265 1.207c.341-.64.798-1.23 1.349-1.737L1.865 1.62ZM-.008 4.035A9.571 9.571 0 0 0-1 6.843l2.521.48c.141-.738.372-1.408.73-2.067L-.009 4.034ZM-1 6.84c-.184.948-.24 1.889-.269 2.77l2.565.081c.027-.839.079-1.618.223-2.363L-1 6.839Zm-.27 2.81c0 .186-.003.374-.006.573-.004.195-.007.402-.007.608h2.566c0-.18.003-.364.007-.563.003-.196.007-.406.007-.618H-1.27Zm-.013 1.18V12.229h2.566V10.83h-2.566Zm0 1.4v26.856h2.566V12.228h-2.566Zm0 26.856V40.483h2.566V39.085h-2.566Zm0 1.398c0 .424.014.832.028 1.225l2.565-.088c-.014-.403-.027-.765-.027-1.137h-2.566Zm.028 1.222c.028.88.085 1.82.269 2.769l2.52-.488c-.145-.745-.198-1.524-.224-2.363l-2.565.082Zm.268 2.766c.183.96.483 1.91 1.006 2.83l2.231-1.267c-.352-.619-.572-1.286-.716-2.044l-2.521.48Zm.989 2.8a9.059 9.059 0 0 0 1.877 2.407l1.736-1.889a6.495 6.495 0 0 1-1.348-1.724L.002 47.27Zm1.857 2.39a9.58 9.58 0 0 0 2.557 1.748l1.09-2.322a7.014 7.014 0 0 1-1.87-1.28L1.858 49.66Zm2.55 1.745c.95.454 1.913.744 2.936.916l.425-2.531a8.353 8.353 0 0 1-2.256-.701l-1.106 2.316Zm2.933.915c.992.17 1.994.223 2.913.249l.072-2.565c-.885-.026-1.742-.075-2.553-.214l-.432 2.53Zm2.869.247c.437.027.874.041 1.324.041v-2.566c-.398 0-.78-.012-1.164-.036l-.16 2.561Zm1.324.041H13.024v-2.566H11.535v2.566Zm1.49 0H150.51v-2.566H13.024v2.566Zm137.486 0H151.987v-2.566H150.511v2.566Zm1.476 0c.406 0 .863 0 1.297-.014l-.08-2.564c-.387.012-.803.012-1.217.012v2.566Zm1.293-.013c.934-.026 1.921-.08 2.913-.25l-.432-2.529c-.812.139-1.656.188-2.553.213l.072 2.566Zm2.91-.249a11.165 11.165 0 0 0 2.943-.912l-1.091-2.323a8.586 8.586 0 0 1-2.278.705l.426 2.53Zm2.943-.912a9.82 9.82 0 0 0 2.547-1.74l-1.757-1.87a7.219 7.219 0 0 1-1.881 1.287l1.091 2.323Zm2.537-1.73a9.576 9.576 0 0 0 1.864-2.385l-2.239-1.253a7.001 7.001 0 0 1-1.362 1.748l1.737 1.89Zm1.873-2.4c.49-.907.809-1.834.983-2.828l-2.528-.442a6.61 6.61 0 0 1-.712 2.048l2.257 1.221Zm.978-2.805c.183-.946.241-1.886.282-2.75l-2.563-.122c-.041.856-.093 1.635-.238 2.384l2.519.488Zm.283-2.81V40.508h-2.566V41.689h2.566Zm0-1.143c.014-.484.014-.965.014-1.437h-2.566c0 .478 0 .921-.013 1.361l2.565.076Zm.014-1.437V12.241h-2.566v26.87h2.566Zm0-26.869c0-.471 0-.952-.014-1.436l-2.565.075c.013.44.013.883.013 1.361h2.566Zm-.014-1.398V9.662h-2.566V10.843h2.566Zm0-1.222c-.028-.879-.085-1.83-.287-2.789l-2.511.527c.154.735.206 1.504.233 2.344l2.565-.082Zm-.278-2.746a9.183 9.183 0 0 0-.983-2.828l-2.257 1.222c.357.66.585 1.323.712 2.048l2.528-.442Zm-.988-2.836a9.713 9.713 0 0 0-1.858-2.395l-1.757 1.87a7.15 7.15 0 0 1 1.367 1.762l2.248-1.237Zm-1.858-2.395a10.239 10.239 0 0 0-2.532-1.733l-1.12 2.308a7.66 7.66 0 0 1 1.895 1.296l1.757-1.871Zm-2.547-1.74c-.959-.45-1.919-.74-2.943-.913l-.426 2.531c.808.136 1.543.36 2.278.705l1.091-2.324Zm-2.94-.912c-.992-.17-1.979-.223-2.913-.249l-.072 2.565c.897.025 1.741.075 2.553.213l.432-2.53Zm-2.949-.25c-.194 0-.396-.003-.609-.006-.21-.003-.432-.006-.648-.006v2.566c.193 0 .395.003.609.006.21.003.432.007.648.007v-2.566Zm-1.223-.012c-.499-.013-1.022-.013-1.51-.013v2.566c.495 0 .983 0 1.441.013l.069-2.566Z" fill="#fff" mask="url(#a)"/><path d="M33.853 26.048c-.041-3.528 3.075-5.248 3.225-5.325-1.763-2.412-4.496-2.746-5.453-2.771-2.296-.231-4.524 1.283-5.685 1.283-1.19 0-2.993-1.27-4.934-1.232a7.327 7.327 0 0 0-6.11 3.503c-2.637 4.299-.669 10.612 1.86 14.089 1.27 1.706 2.747 3.606 4.687 3.529 1.9-.077 2.61-1.13 4.893-1.13 2.269 0 2.925 1.13 4.906 1.091 2.037-.026 3.321-1.706 4.538-3.426 1.462-1.95 2.05-3.875 2.077-3.965-.068-.013-3.963-1.411-4.004-5.646ZM30.122 15.668c1.025-1.194 1.722-2.823 1.517-4.478-1.476.064-3.321.962-4.387 2.13-.943 1.026-1.777 2.72-1.558 4.31 1.654.116 3.362-.782 4.428-1.962ZM57.81 34.825h-6.464l-1.558 4.311h-2.734L53.177 23.2h2.843l6.122 15.936h-2.788l-1.544-4.311Zm-5.795-1.989h5.125l-2.528-6.993h-.068l-2.529 6.993ZM75.385 33.324c0 3.606-2.063 5.928-5.166 5.928-1.763 0-3.157-.744-3.895-2.027h-.054v5.748h-2.542V27.512h2.46v1.937h.04c.711-1.245 2.215-2.053 3.937-2.053 3.157 0 5.22 2.322 5.22 5.928Zm-2.61 0c0-2.348-1.298-3.9-3.266-3.9-1.94 0-3.253 1.578-3.253 3.9 0 2.336 1.312 3.914 3.253 3.914 1.968 0 3.266-1.54 3.266-3.914ZM88.998 33.324c0 3.606-2.064 5.928-5.166 5.928-1.763 0-3.157-.744-3.895-2.027h-.055v5.748h-2.528V27.512h2.46v1.937h.04c.711-1.245 2.215-2.053 3.937-2.053 3.143 0 5.207 2.322 5.207 5.928Zm-2.61 0c0-2.348-1.299-3.9-3.267-3.9-1.94 0-3.253 1.578-3.253 3.9 0 2.336 1.312 3.914 3.253 3.914 1.982 0 3.266-1.54 3.266-3.914ZM98.004 34.697c.191 1.578 1.818 2.617 4.059 2.617 2.146 0 3.676-1.04 3.676-2.463 0-1.232-.929-1.976-3.129-2.49l-2.201-.5c-3.116-.706-4.564-2.079-4.564-4.299 0-2.746 2.555-4.632 6.177-4.632 3.581 0 6.041 1.886 6.123 4.632h-2.57c-.15-1.59-1.558-2.553-3.594-2.553-2.036 0-3.444.975-3.444 2.386 0 1.13.888 1.784 3.075 2.297l1.872.437c3.485.77 4.934 2.091 4.934 4.414 0 2.977-2.528 4.85-6.546 4.85-3.758 0-6.3-1.822-6.465-4.71h2.597v.014ZM113.911 24.765v2.746h2.35v1.886h-2.35V35.8c0 1 .465 1.463 1.503 1.463.26 0 .67-.039.834-.052v1.874c-.287.064-.848.115-1.408.115-2.501 0-3.485-.885-3.485-3.13v-6.66h-1.804v-1.887h1.804v-2.758h2.556ZM117.615 33.323c0-3.657 2.296-5.953 5.863-5.953 3.581 0 5.863 2.296 5.863 5.953 0 3.67-2.268 5.954-5.863 5.954-3.58 0-5.863-2.284-5.863-5.954Zm9.157 0c0-2.502-1.23-3.99-3.28-3.99s-3.28 1.488-3.28 3.99c0 2.515 1.216 3.991 3.28 3.991s3.28-1.476 3.28-3.99ZM131.459 27.511h2.419v1.976h.055c.383-1.309 1.517-2.104 2.979-2.104.369 0 .67.051.875.09v2.232c-.205-.077-.642-.14-1.134-.14-1.64 0-2.652 1.038-2.652 2.668v6.89h-2.542V27.512ZM149.485 35.723c-.342 2.104-2.528 3.554-5.33 3.554-3.594 0-5.836-2.258-5.836-5.902s2.242-6.005 5.727-6.005c3.416 0 5.576 2.207 5.576 5.735v.822h-8.733v.14c0 1.99 1.325 3.285 3.334 3.285 1.408 0 2.515-.628 2.857-1.63h2.405Zm-8.583-3.477h6.191c-.054-1.784-1.271-2.952-3.034-2.952-1.749.013-3.02 1.206-3.157 2.952ZM51.7 11.202c2.42 0 3.841 1.399 3.841 3.798 0 2.451-1.407 3.85-3.84 3.85h-2.952v-7.648H51.7Zm-1.68 6.57h1.53c1.709 0 2.693-1.001 2.693-2.759 0-1.732-.998-2.733-2.693-2.733h-1.53v5.492ZM56.963 15.963c0-1.86 1.107-3.003 2.897-3.003 1.79 0 2.897 1.13 2.897 3.003 0 1.874-1.107 3.003-2.897 3.003-1.79 0-2.897-1.13-2.897-3.003Zm4.55 0c0-1.257-.6-1.989-1.653-1.989-1.052 0-1.654.732-1.654 1.989 0 1.258.588 1.989 1.654 1.989 1.066 0 1.654-.732 1.654-1.989ZM70.479 18.863H69.22l-1.27-4.26h-.096l-1.271 4.26H65.34l-1.695-5.775h1.23l1.108 4.414h.095l1.271-4.414h1.162l1.27 4.414h.096l1.094-4.414h1.216l-1.708 5.775ZM73.595 13.076h1.176V14h.095c.3-.642.916-1.027 1.832-1.027 1.366 0 2.132.77 2.132 2.143v3.747h-1.217V15.41c0-.924-.423-1.386-1.325-1.386-.902 0-1.476.565-1.476 1.463v3.375h-1.217v-5.787ZM80.756 10.83h1.217v8.033h-1.217V10.83ZM83.668 15.963c0-1.86 1.107-3.003 2.897-3.003 1.79 0 2.898 1.13 2.898 3.003 0 1.874-1.107 3.003-2.898 3.003-1.804 0-2.897-1.13-2.897-3.003Zm4.55 0c0-1.257-.6-1.989-1.653-1.989-1.052 0-1.653.732-1.653 1.989 0 1.258.587 1.989 1.653 1.989 1.053 0 1.654-.732 1.654-1.989ZM90.747 17.22c0-1.039.82-1.642 2.282-1.719l1.668-.09v-.5c0-.616-.424-.95-1.258-.95-.683 0-1.148.231-1.284.642h-1.176c.123-.988 1.12-1.63 2.515-1.63 1.544 0 2.419.719 2.419 1.938v3.952h-1.175v-.808h-.096c-.37.577-1.039.91-1.845.91-1.19-.012-2.05-.68-2.05-1.745Zm3.963-.487v-.488l-1.503.09c-.847.051-1.23.32-1.23.834 0 .526.478.821 1.134.821.916 0 1.6-.539 1.6-1.257ZM97.511 15.963c0-1.822.998-2.977 2.556-2.977.847 0 1.558.372 1.886 1.013h.096V10.83h1.216v8.033h-1.175v-.911h-.096c-.369.628-1.08 1.013-1.927 1.013-1.572-.013-2.556-1.167-2.556-3.002Zm1.258 0c0 1.232.615 1.963 1.64 1.963s1.653-.744 1.653-1.963c0-1.206-.642-1.963-1.653-1.963-1.025.012-1.64.757-1.64 1.963ZM108.281 15.963c0-1.86 1.107-3.003 2.897-3.003 1.79 0 2.897 1.13 2.897 3.003 0 1.874-1.107 3.003-2.897 3.003-1.79 0-2.897-1.13-2.897-3.003Zm4.551 0c0-1.257-.602-1.989-1.654-1.989s-1.654.732-1.654 1.989c0 1.258.588 1.989 1.654 1.989 1.052 0 1.654-.732 1.654-1.989ZM115.716 13.076h1.175V14h.096c.3-.642.915-1.027 1.831-1.027 1.367 0 2.132.77 2.132 2.143v3.747h-1.216V15.41c0-.924-.424-1.386-1.326-1.386-.902 0-1.476.565-1.476 1.463v3.375h-1.216v-5.787ZM127.81 11.638v1.463h1.339v.962h-1.339v2.977c0 .603.26.873.875.873.191 0 .287-.013.464-.026v.95c-.191.025-.423.064-.656.064-1.353 0-1.886-.45-1.886-1.566v-3.259h-.97v-.962h.97v-1.476h1.203ZM130.79 10.83h1.202v3.182h.096c.301-.641.943-1.04 1.872-1.04 1.312 0 2.119.784 2.119 2.157v3.734h-1.217V15.41c0-.924-.451-1.386-1.312-1.386-.997 0-1.544.59-1.544 1.463v3.375h-1.216V10.83ZM143.171 17.297c-.273 1.04-1.257 1.668-2.665 1.668-1.763 0-2.842-1.129-2.842-2.976 0-1.848 1.107-3.016 2.842-3.016 1.709 0 2.747 1.104 2.747 2.913v.398h-4.346v.064c.041 1.014.67 1.655 1.64 1.655.738 0 1.244-.244 1.463-.706h1.161Zm-4.264-1.86h3.103c-.028-.911-.615-1.502-1.517-1.502-.902 0-1.517.604-1.586 1.502Z" fill="#fff"/></svg>